{"title":"Banshee.S04E01.Xvid.Mp3.CSH","uid":14142052,"size":250777212,"categoryP":"video","categoryS":"tv_shows","magnet":"?xt=urn:btih:4619278603277d59764e06b3a87354e4d4eac9a2&amp;dn=Banshee.S04E01.Xvid.Mp3.CSH&amp;tr=udp%3A%2F%2Ftracker.leechers-paradise.org%3A6969&amp;tr=udp%3A%2F%2Fzer0day.ch%3A1337&amp;tr=udp%3A%2F%2Fopen.demonii.com%3A1337&amp;tr=udp%3A%2F%2Ftracker.coppersurfer.tk%3A6969&amp;tr=udp%3A%2F%2Fexodus.desync.com%3A6969","seeders":0,"leechers":1,"uploader":"GM_CSH","files":1,"time":1459619919,"description":"first installment of the latest series of banshee (epic)\r\n\r\nripped for those with limited monthly internet\r\n\r\nbest quality you will get at this file size.\r\n\r\nsharing is caring, ppp.\r\n\r\n\r\nFormat                      : AVI\r\nFormat/Info                 : Audio Video Interleave\r\nFile size                   : 239 MiB\r\nDuration                    : 57mn 35s\r\nOverall bit rate            : 581 Kbps\r\n\r\nVideo\r\nID                          : 0\r\nFormat                      : MPEG-4 Visual\r\nFormat profile              : Advanced   \r\nFormat settings, BVOP       : No\r\nFormat settings, QPel       : No\r\nFormat settings, GMC        : No warppoints\r\nFormat settings, Matrix     : Default (H.263)\r\nCodec ID                    : XVID\r\nCodec ID/Hint               : XviD\r\nDuration                    : 57mn 35s\r\nBit rate                    : 507 Kbps\r\nWidth                       : 720 pixels\r\nHeight                      : 400 pixels\r\nDisplay aspect ratio        : 16:9\r\nFrame rate                  : 23.976 (24000/1001) fps\r\nColor space                 : YUV\r\nChroma subsampling          : 4:2:0\r\nBit depth                   : 8 bits\r\nScan type                   : Progressive\r\nCompression mode            : Lossy\r\nBits/(Pixel*Frame)          : 0.073\r\nStream size                 : 209 MiB (87%)\r\nWriting library             : XviD 62\r\n\r\nAudio\r\nID                          : 1\r\nFormat                      : MPEG Audio\r\nFormat version              : Version 1\r\nFormat profile              : Layer 3\r\nCodec ID                    : 55\r\nCodec ID/Hint               : MP3\r\nDuration                    : 57mn 35s\r\nBit rate mode               : Constant\r\nBit rate                    : 64.0 Kbps\r\nChannel(s)                  : 2 channels\r\nSampling rate               : 32.0 KHz\r\nCompression mode            : Lossy\r\nStream size                 : 26.4 MiB (11%)\r\nAlignment                   : Split accross interleaves\r\nInterleave, duration        : 42 ms (1.00 video frame)","torrent":{"xt":"urn:btih:4619278603277d59764e06b3a87354e4d4eac9a2","amp;dn":"Banshee.S04E01.Xvid.Mp3.CSH","amp;tr":["udp%3A%2F%2Ftracker.leechers-paradise.org%3A6969","udp%3A%2F%2Fzer0day.ch%3A1337","udp%3A%2F%2Fopen.demonii.com%3A1337","udp%3A%2F%2Ftracker.coppersurfer.tk%3A6969","udp%3A%2F%2Fexodus.desync.com%3A6969"],"infoHash":"4619278603277d59764e06b3a87354e4d4eac9a2","infoHashBuffer":{"type":"Buffer","data":[70,25,39,134,3,39,125,89,118,78,6,179,168,115,84,228,212,234,201,162]},"announce":[],"urlList":[]}}